<svg xmlns="http://www.w3.org/2000/svg" xmlns:xlink="http://www.w3.org/1999/xlink" contentStyleType="text/css" height="1590px" preserveAspectRatio="none" style="width:523px;height:1590px;background:#FFFFFF;" version="1.1" viewBox="0 0 523 1590" width="523px" zoomAndPan="magnify"><script xmlns=""/><defs/><g><ellipse cx="269.3179" cy="20" fill="#222222" rx="10" ry="10" style="stroke:#222222;stroke-width:1.0;"/><rect fill="#F1F1F1" height="33.9688" rx="12.5" ry="12.5" style="stroke:#181818;stroke-width:0.5;" width="49.3145" x="244.6606" y="50"/><text fill="#000000" font-family="sans-serif" font-size="12" lengthAdjust="spacing" textLength="29.3145" x="254.6606" y="71.1387">Start</text><rect fill="#F1F1F1" height="33.9688" rx="12.5" ry="12.5" style="stroke:#181818;stroke-width:0.5;" width="182.5977" x="178.019" y="103.9688"/><text fill="#000000" font-family="sans-serif" font-size="12" lengthAdjust="spacing" textLength="162.5977" x="188.019" y="125.1074">User Input: Document Text</text><polygon fill="#F1F1F1" points="194.9685,157.9375,343.6672,157.9375,355.6672,169.9375,343.6672,181.9375,194.9685,181.9375,182.9685,169.9375,194.9685,157.9375" style="stroke:#181818;stroke-width:0.5;"/><text fill="#000000" font-family="sans-serif" font-size="11" lengthAdjust="spacing" textLength="148.6987" x="194.9685" y="173.7456">Is Document Title Needed?</text><text fill="#000000" font-family="sans-serif" font-size="11" lengthAdjust="spacing" textLength="19.2178" x="163.7507" y="167.3433">Yes</text><text fill="#000000" font-family="sans-serif" font-size="11" lengthAdjust="spacing" textLength="14.9585" x="355.6672" y="167.3433">No</text><rect fill="#F1F1F1" height="33.9688" rx="12.5" ry="12.5" style="stroke:#181818;stroke-width:0.5;" width="171.2891" x="71.6211" y="191.9375"/><text fill="#000000" font-family="sans-serif" font-size="12" lengthAdjust="spacing" textLength="151.2891" x="81.6211" y="213.0762">Call get_document_title()</text><rect fill="#F1F1F1" height="33.9688" rx="12.5" ry="12.5" style="stroke:#181818;stroke-width:0.5;" width="262.0332" x="26.249" y="245.9063"/><text fill="#000000" font-family="sans-serif" font-size="12" lengthAdjust="spacing" textLength="242.0332" x="36.249" y="267.0449">Truncate document_text to 4000 tokens</text><rect fill="#F1F1F1" height="33.9688" rx="12.5" ry="12.5" style="stroke:#181818;stroke-width:0.5;" width="215.3984" x="49.5664" y="299.875"/><text fill="#000000" font-family="sans-serif" font-size="12" lengthAdjust="spacing" textLength="195.3984" x="59.5664" y="321.0137">Generate document title prompt</text><rect fill="#F1F1F1" height="33.9688" rx="12.5" ry="12.5" style="stroke:#181818;stroke-width:0.5;" width="238.5664" x="37.9824" y="353.8438"/><text fill="#000000" font-family="sans-serif" font-size="12" lengthAdjust="spacing" textLength="218.5664" x="47.9824" y="374.9824">Call LLM with document title prompt</text><rect fill="#F1F1F1" height="33.9688" rx="12.5" ry="12.5" style="stroke:#181818;stroke-width:0.5;" width="152.2051" x="81.1631" y="407.8125"/><text fill="#000000" font-family="sans-serif" font-size="12" lengthAdjust="spacing" textLength="132.2051" x="91.1631" y="428.9512">Return document title</text><rect fill="#F1F1F1" height="33.9688" rx="12.5" ry="12.5" style="stroke:#181818;stroke-width:0.5;" width="146.1758" x="308.2822" y="191.9375"/><text fill="#000000" font-family="sans-serif" font-size="12" lengthAdjust="spacing" textLength="126.1758" x="318.2822" y="213.0762">Skip Title Generation</text><polygon fill="#F1F1F1" points="269.3179,447.7813,281.3179,459.7813,269.3179,471.7813,257.3179,459.7813,269.3179,447.7813" style="stroke:#181818;stroke-width:0.5;"/><polygon fill="#F1F1F1" points="180.3457,491.7813,358.29,491.7813,370.29,503.7813,358.29,515.7813,180.3457,515.7813,168.3457,503.7813,180.3457,491.7813" style="stroke:#181818;stroke-width:0.5;"/><text fill="#000000" font-family="sans-serif" font-size="11" lengthAdjust="spacing" textLength="177.9443" x="180.3457" y="507.5894">Is Document Summary Needed?</text><text fill="#000000" font-family="sans-serif" font-size="11" lengthAdjust="spacing" textLength="19.2178" x="149.1279" y="501.187">Yes</text><text fill="#000000" font-family="sans-serif" font-size="11" lengthAdjust="spacing" textLength="14.9585" x="370.29" y="501.187">No</text><rect fill="#F1F1F1" height="33.9688" rx="12.5" ry="12.5" style="stroke:#181818;stroke-width:0.5;" width="204.4531" x="44.6387" y="525.7813"/><text fill="#000000" font-family="sans-serif" font-size="12" lengthAdjust="spacing" textLength="184.4531" x="54.6387" y="546.9199">Call get_document_summary()</text><rect fill="#F1F1F1" height="33.9688" rx="12.5" ry="12.5" style="stroke:#181818;stroke-width:0.5;" width="262.0332" x="15.8486" y="579.75"/><text fill="#000000" font-family="sans-serif" font-size="12" lengthAdjust="spacing" textLength="242.0332" x="25.8486" y="600.8887">Truncate document_text to 8000 tokens</text><rect fill="#F1F1F1" height="33.9688" rx="12.5" ry="12.5" style="stroke:#181818;stroke-width:0.5;" width="248.5625" x="22.584" y="633.7188"/><text fill="#000000" font-family="sans-serif" font-size="12" lengthAdjust="spacing" textLength="228.5625" x="32.584" y="654.8574">Generate document summary prompt</text><rect fill="#F1F1F1" height="33.9688" rx="12.5" ry="12.5" style="stroke:#181818;stroke-width:0.5;" width="271.7305" x="11" y="687.6875"/><text fill="#000000" font-family="sans-serif" font-size="12" lengthAdjust="spacing" textLength="251.7305" x="21" y="708.8262">Call LLM with document summary prompt</text><rect fill="#F1F1F1" height="33.9688" rx="12.5" ry="12.5" style="stroke:#181818;stroke-width:0.5;" width="185.3691" x="54.1807" y="741.6563"/><text fill="#000000" font-family="sans-serif" font-size="12" lengthAdjust="spacing" textLength="165.3691" x="64.1807" y="762.7949">Return document summary</text><rect fill="#F1F1F1" height="33.9688" rx="12.5" ry="12.5" style="stroke:#181818;stroke-width:0.5;" width="178.0801" x="302.7305" y="525.7813"/><text fill="#000000" font-family="sans-serif" font-size="12" lengthAdjust="spacing" textLength="158.0801" x="312.7305" y="546.9199">Skip Summary Generation</text><polygon fill="#F1F1F1" points="269.3179,781.625,281.3179,793.625,269.3179,805.625,257.3179,793.625,269.3179,781.625" style="stroke:#181818;stroke-width:0.5;"/><polygon fill="#F1F1F1" points="188.405,825.625,350.2307,825.625,362.2307,837.625,350.2307,849.625,188.405,849.625,176.405,837.625,188.405,825.625" style="stroke:#181818;stroke-width:0.5;"/><text fill="#000000" font-family="sans-serif" font-size="11" lengthAdjust="spacing" textLength="161.8257" x="188.405" y="841.4331">Is Section Summary Needed?</text><text fill="#000000" font-family="sans-serif" font-size="11" lengthAdjust="spacing" textLength="19.2178" x="157.1873" y="835.0308">Yes</text><text fill="#000000" font-family="sans-serif" font-size="11" lengthAdjust="spacing" textLength="14.9585" x="362.2307" y="835.0308">No</text><rect fill="#F1F1F1" height="33.9688" rx="12.5" ry="12.5" style="stroke:#181818;stroke-width:0.5;" width="187.127" x="45.5337" y="859.625"/><text fill="#000000" font-family="sans-serif" font-size="12" lengthAdjust="spacing" textLength="167.127" x="55.5337" y="880.7637">Call get_section_summary()</text><rect fill="#F1F1F1" height="33.9688" rx="12.5" ry="12.5" style="stroke:#181818;stroke-width:0.5;" width="231.2363" x="23.479" y="913.5938"/><text fill="#000000" font-family="sans-serif" font-size="12" lengthAdjust="spacing" textLength="211.2363" x="33.479" y="934.7324">Generate section summary prompt</text><rect fill="#F1F1F1" height="33.9688" rx="12.5" ry="12.5" style="stroke:#181818;stroke-width:0.5;" width="254.4043" x="11.895" y="967.5625"/><text fill="#000000" font-family="sans-serif" font-size="12" lengthAdjust="spacing" textLength="234.4043" x="21.895" y="988.7012">Call LLM with section summary prompt</text><rect fill="#F1F1F1" height="33.9688" rx="12.5" ry="12.5" style="stroke:#181818;stroke-width:0.5;" width="168.043" x="55.0757" y="1021.5313"/><text fill="#000000" font-family="sans-serif" font-size="12" lengthAdjust="spacing" textLength="148.043" x="65.0757" y="1042.6699">Return section summary</text><rect fill="#F1F1F1" height="33.9688" rx="12.5" ry="12.5" style="stroke:#181818;stroke-width:0.5;" width="226.4785" x="286.2993" y="859.625"/><text fill="#000000" font-family="sans-serif" font-size="12" lengthAdjust="spacing" textLength="206.4785" x="296.2993" y="880.7637">Skip Section Summary Generation</text><polygon fill="#F1F1F1" points="269.3179,1061.5,281.3179,1073.5,269.3179,1085.5,257.3179,1073.5,269.3179,1061.5" style="stroke:#181818;stroke-width:0.5;"/><polygon fill="#F1F1F1" points="197.9092,1105.5,340.7266,1105.5,352.7266,1117.5,340.7266,1129.5,197.9092,1129.5,185.9092,1117.5,197.9092,1105.5" style="stroke:#181818;stroke-width:0.5;"/><text fill="#000000" font-family="sans-serif" font-size="11" lengthAdjust="spacing" textLength="142.8174" x="197.9092" y="1121.3081">Is Chunk Header Needed?</text><text fill="#000000" font-family="sans-serif" font-size="11" lengthAdjust="spacing" textLength="19.2178" x="166.6914" y="1114.9058">Yes</text><text fill="#000000" font-family="sans-serif" font-size="11" lengthAdjust="spacing" textLength="14.9585" x="352.7266" y="1114.9058">No</text><rect fill="#F1F1F1" height="33.9688" rx="12.5" ry="12.5" style="stroke:#181818;stroke-width:0.5;" width="165.9219" x="83.4409" y="1139.5"/><text fill="#000000" font-family="sans-serif" font-size="12" lengthAdjust="spacing" textLength="145.9219" x="93.4409" y="1160.6387">Call get_chunk_header()</text><rect fill="#F1F1F1" height="33.9688" rx="12.5" ry="12.5" style="stroke:#181818;stroke-width:0.5;" width="162.3125" x="85.2456" y="1193.4688"/><text fill="#000000" font-family="sans-serif" font-size="12" lengthAdjust="spacing" textLength="142.3125" x="95.2456" y="1214.6074">Generate chunk header</text><rect fill="#F1F1F1" height="33.9688" rx="12.5" ry="12.5" style="stroke:#181818;stroke-width:0.5;" width="146.8379" x="92.9829" y="1247.4375"/><text fill="#000000" font-family="sans-serif" font-size="12" lengthAdjust="spacing" textLength="126.8379" x="102.9829" y="1268.5762">Return chunk header</text><rect fill="#F1F1F1" height="33.9688" rx="12.5" ry="12.5" style="stroke:#181818;stroke-width:0.5;" width="205.7422" x="269.3628" y="1139.5"/><text fill="#000000" font-family="sans-serif" font-size="12" lengthAdjust="spacing" textLength="185.7422" x="279.3628" y="1160.6387">Skip Chunk Header Generation</text><polygon fill="#F1F1F1" points="269.3179,1287.4063,281.3179,1299.4063,269.3179,1311.4063,257.3179,1299.4063,269.3179,1287.4063" style="stroke:#181818;stroke-width:0.5;"/><polygon fill="#F1F1F1" points="190.6421,1331.4063,347.9937,1331.4063,359.9937,1343.4063,347.9937,1355.4063,190.6421,1355.4063,178.6421,1343.4063,190.6421,1331.4063" style="stroke:#181818;stroke-width:0.5;"/><text fill="#000000" font-family="sans-serif" font-size="11" lengthAdjust="spacing" textLength="157.3516" x="190.6421" y="1347.2144">Is Segment Header Needed?</text><text fill="#000000" font-family="sans-serif" font-size="11" lengthAdjust="spacing" textLength="19.2178" x="159.4243" y="1340.812">Yes</text><text fill="#000000" font-family="sans-serif" font-size="11" lengthAdjust="spacing" textLength="14.9585" x="359.9937" y="1340.812">No</text><rect fill="#F1F1F1" height="33.9688" rx="12.5" ry="12.5" style="stroke:#181818;stroke-width:0.5;" width="182.1934" x="67.2734" y="1365.4063"/><text fill="#000000" font-family="sans-serif" font-size="12" lengthAdjust="spacing" textLength="162.1934" x="77.2734" y="1386.5449">Call get_segment_header()</text><rect fill="#F1F1F1" height="33.9688" rx="12.5" ry="12.5" style="stroke:#181818;stroke-width:0.5;" width="178.584" x="69.0781" y="1419.375"/><text fill="#000000" font-family="sans-serif" font-size="12" lengthAdjust="spacing" textLength="158.584" x="79.0781" y="1440.5137">Generate segment header</text><rect fill="#F1F1F1" height="33.9688" rx="12.5" ry="12.5" style="stroke:#181818;stroke-width:0.5;" width="163.1094" x="76.8154" y="1473.3438"/><text fill="#000000" font-family="sans-serif" font-size="12" lengthAdjust="spacing" textLength="143.1094" x="86.8154" y="1494.4824">Return segment header</text><rect fill="#F1F1F1" height="33.9688" rx="12.5" ry="12.5" style="stroke:#181818;stroke-width:0.5;" width="221.5977" x="269.4668" y="1365.4063"/><text fill="#000000" font-family="sans-serif" font-size="12" lengthAdjust="spacing" textLength="201.5977" x="279.4668" y="1386.5449">Skip Segment Header Generation</text><polygon fill="#F1F1F1" points="269.3179,1513.3125,281.3179,1525.3125,269.3179,1537.3125,257.3179,1525.3125,269.3179,1513.3125" style="stroke:#181818;stroke-width:0.5;"/><ellipse cx="269.3179" cy="1568.3125" fill="none" rx="11" ry="11" style="stroke:#222222;stroke-width:1.0;"/><ellipse cx="269.3179" cy="1568.3125" fill="#222222" rx="6" ry="6" style="stroke:#222222;stroke-width:1.0;"/><line style="stroke:#181818;stroke-width:1.0;" x1="269.3179" x2="269.3179" y1="30" y2="50"/><polygon fill="#181818" points="265.3179,40,269.3179,50,273.3179,40,269.3179,44" style="stroke:#181818;stroke-width:1.0;"/><line style="stroke:#181818;stroke-width:1.0;" x1="269.3179" x2="269.3179" y1="83.9688" y2="103.9688"/><polygon fill="#181818" points="265.3179,93.9688,269.3179,103.9688,273.3179,93.9688,269.3179,97.9688" style="stroke:#181818;stroke-width:1.0;"/><line style="stroke:#181818;stroke-width:1.0;" x1="157.2656" x2="157.2656" y1="225.9063" y2="245.9063"/><polygon fill="#181818" points="153.2656,235.9063,157.2656,245.9063,161.2656,235.9063,157.2656,239.9063" style="stroke:#181818;stroke-width:1.0;"/><line style="stroke:#181818;stroke-width:1.0;" x1="157.2656" x2="157.2656" y1="279.875" y2="299.875"/><polygon fill="#181818" points="153.2656,289.875,157.2656,299.875,161.2656,289.875,157.2656,293.875" style="stroke:#181818;stroke-width:1.0;"/><line style="stroke:#181818;stroke-width:1.0;" x1="157.2656" x2="157.2656" y1="333.8438" y2="353.8438"/><polygon fill="#181818" points="153.2656,343.8438,157.2656,353.8438,161.2656,343.8438,157.2656,347.8438" style="stroke:#181818;stroke-width:1.0;"/><line style="stroke:#181818;stroke-width:1.0;" x1="157.2656" x2="157.2656" y1="387.8125" y2="407.8125"/><polygon fill="#181818" points="153.2656,397.8125,157.2656,407.8125,161.2656,397.8125,157.2656,401.8125" style="stroke:#181818;stroke-width:1.0;"/><line style="stroke:#181818;stroke-width:1.0;" x1="182.9685" x2="157.2656" y1="169.9375" y2="169.9375"/><line style="stroke:#181818;stroke-width:1.0;" x1="157.2656" x2="157.2656" y1="169.9375" y2="191.9375"/><polygon fill="#181818" points="153.2656,181.9375,157.2656,191.9375,161.2656,181.9375,157.2656,185.9375" style="stroke:#181818;stroke-width:1.0;"/><line style="stroke:#181818;stroke-width:1.0;" x1="355.6672" x2="381.3701" y1="169.9375" y2="169.9375"/><line style="stroke:#181818;stroke-width:1.0;" x1="381.3701" x2="381.3701" y1="169.9375" y2="191.9375"/><polygon fill="#181818" points="377.3701,181.9375,381.3701,191.9375,385.3701,181.9375,381.3701,185.9375" style="stroke:#181818;stroke-width:1.0;"/><line style="stroke:#181818;stroke-width:1.0;" x1="157.2656" x2="157.2656" y1="441.7813" y2="459.7813"/><line style="stroke:#181818;stroke-width:1.0;" x1="157.2656" x2="257.3179" y1="459.7813" y2="459.7813"/><polygon fill="#181818" points="247.3179,455.7813,257.3179,459.7813,247.3179,463.7813,251.3179,459.7813" style="stroke:#181818;stroke-width:1.0;"/><line style="stroke:#181818;stroke-width:1.0;" x1="381.3701" x2="381.3701" y1="225.9063" y2="459.7813"/><line style="stroke:#181818;stroke-width:1.0;" x1="381.3701" x2="281.3179" y1="459.7813" y2="459.7813"/><polygon fill="#181818" points="291.3179,455.7813,281.3179,459.7813,291.3179,463.7813,287.3179,459.7813" style="stroke:#181818;stroke-width:1.0;"/><line style="stroke:#181818;stroke-width:1.0;" x1="269.3179" x2="269.3179" y1="137.9375" y2="157.9375"/><polygon fill="#181818" points="265.3179,147.9375,269.3179,157.9375,273.3179,147.9375,269.3179,151.9375" style="stroke:#181818;stroke-width:1.0;"/><line style="stroke:#181818;stroke-width:1.0;" x1="146.8652" x2="146.8652" y1="559.75" y2="579.75"/><polygon fill="#181818" points="142.8652,569.75,146.8652,579.75,150.8652,569.75,146.8652,573.75" style="stroke:#181818;stroke-width:1.0;"/><line style="stroke:#181818;stroke-width:1.0;" x1="146.8652" x2="146.8652" y1="613.7188" y2="633.7188"/><polygon fill="#181818" points="142.8652,623.7188,146.8652,633.7188,150.8652,623.7188,146.8652,627.7188" style="stroke:#181818;stroke-width:1.0;"/><line style="stroke:#181818;stroke-width:1.0;" x1="146.8652" x2="146.8652" y1="667.6875" y2="687.6875"/><polygon fill="#181818" points="142.8652,677.6875,146.8652,687.6875,150.8652,677.6875,146.8652,681.6875" style="stroke:#181818;stroke-width:1.0;"/><line style="stroke:#181818;stroke-width:1.0;" x1="146.8652" x2="146.8652" y1="721.6563" y2="741.6563"/><polygon fill="#181818" points="142.8652,731.6563,146.8652,741.6563,150.8652,731.6563,146.8652,735.6563" style="stroke:#181818;stroke-width:1.0;"/><line style="stroke:#181818;stroke-width:1.0;" x1="168.3457" x2="146.8652" y1="503.7813" y2="503.7813"/><line style="stroke:#181818;stroke-width:1.0;" x1="146.8652" x2="146.8652" y1="503.7813" y2="525.7813"/><polygon fill="#181818" points="142.8652,515.7813,146.8652,525.7813,150.8652,515.7813,146.8652,519.7813" style="stroke:#181818;stroke-width:1.0;"/><line style="stroke:#181818;stroke-width:1.0;" x1="370.29" x2="391.7705" y1="503.7813" y2="503.7813"/><line style="stroke:#181818;stroke-width:1.0;" x1="391.7705" x2="391.7705" y1="503.7813" y2="525.7813"/><polygon fill="#181818" points="387.7705,515.7813,391.7705,525.7813,395.7705,515.7813,391.7705,519.7813" style="stroke:#181818;stroke-width:1.0;"/><line style="stroke:#181818;stroke-width:1.0;" x1="146.8652" x2="146.8652" y1="775.625" y2="793.625"/><line style="stroke:#181818;stroke-width:1.0;" x1="146.8652" x2="257.3179" y1="793.625" y2="793.625"/><polygon fill="#181818" points="247.3179,789.625,257.3179,793.625,247.3179,797.625,251.3179,793.625" style="stroke:#181818;stroke-width:1.0;"/><line style="stroke:#181818;stroke-width:1.0;" x1="391.7705" x2="391.7705" y1="559.75" y2="793.625"/><line style="stroke:#181818;stroke-width:1.0;" x1="391.7705" x2="281.3179" y1="793.625" y2="793.625"/><polygon fill="#181818" points="291.3179,789.625,281.3179,793.625,291.3179,797.625,287.3179,793.625" style="stroke:#181818;stroke-width:1.0;"/><line style="stroke:#181818;stroke-width:1.0;" x1="269.3179" x2="269.3179" y1="471.7813" y2="491.7813"/><polygon fill="#181818" points="265.3179,481.7813,269.3179,491.7813,273.3179,481.7813,269.3179,485.7813" style="stroke:#181818;stroke-width:1.0;"/><line style="stroke:#181818;stroke-width:1.0;" x1="139.0972" x2="139.0972" y1="893.5938" y2="913.5938"/><polygon fill="#181818" points="135.0972,903.5938,139.0972,913.5938,143.0972,903.5938,139.0972,907.5938" style="stroke:#181818;stroke-width:1.0;"/><line style="stroke:#181818;stroke-width:1.0;" x1="139.0972" x2="139.0972" y1="947.5625" y2="967.5625"/><polygon fill="#181818" points="135.0972,957.5625,139.0972,967.5625,143.0972,957.5625,139.0972,961.5625" style="stroke:#181818;stroke-width:1.0;"/><line style="stroke:#181818;stroke-width:1.0;" x1="139.0972" x2="139.0972" y1="1001.5313" y2="1021.5313"/><polygon fill="#181818" points="135.0972,1011.5313,139.0972,1021.5313,143.0972,1011.5313,139.0972,1015.5313" style="stroke:#181818;stroke-width:1.0;"/><line style="stroke:#181818;stroke-width:1.0;" x1="176.405" x2="139.0972" y1="837.625" y2="837.625"/><line style="stroke:#181818;stroke-width:1.0;" x1="139.0972" x2="139.0972" y1="837.625" y2="859.625"/><polygon fill="#181818" points="135.0972,849.625,139.0972,859.625,143.0972,849.625,139.0972,853.625" style="stroke:#181818;stroke-width:1.0;"/><line style="stroke:#181818;stroke-width:1.0;" x1="362.2307" x2="399.5386" y1="837.625" y2="837.625"/><line style="stroke:#181818;stroke-width:1.0;" x1="399.5386" x2="399.5386" y1="837.625" y2="859.625"/><polygon fill="#181818" points="395.5386,849.625,399.5386,859.625,403.5386,849.625,399.5386,853.625" style="stroke:#181818;stroke-width:1.0;"/><line style="stroke:#181818;stroke-width:1.0;" x1="139.0972" x2="139.0972" y1="1055.5" y2="1073.5"/><line style="stroke:#181818;stroke-width:1.0;" x1="139.0972" x2="257.3179" y1="1073.5" y2="1073.5"/><polygon fill="#181818" points="247.3179,1069.5,257.3179,1073.5,247.3179,1077.5,251.3179,1073.5" style="stroke:#181818;stroke-width:1.0;"/><line style="stroke:#181818;stroke-width:1.0;" x1="399.5386" x2="399.5386" y1="893.5938" y2="1073.5"/><line style="stroke:#181818;stroke-width:1.0;" x1="399.5386" x2="281.3179" y1="1073.5" y2="1073.5"/><polygon fill="#181818" points="291.3179,1069.5,281.3179,1073.5,291.3179,1077.5,287.3179,1073.5" style="stroke:#181818;stroke-width:1.0;"/><line style="stroke:#181818;stroke-width:1.0;" x1="269.3179" x2="269.3179" y1="805.625" y2="825.625"/><polygon fill="#181818" points="265.3179,815.625,269.3179,825.625,273.3179,815.625,269.3179,819.625" style="stroke:#181818;stroke-width:1.0;"/><line style="stroke:#181818;stroke-width:1.0;" x1="166.4019" x2="166.4019" y1="1173.4688" y2="1193.4688"/><polygon fill="#181818" points="162.4019,1183.4688,166.4019,1193.4688,170.4019,1183.4688,166.4019,1187.4688" style="stroke:#181818;stroke-width:1.0;"/><line style="stroke:#181818;stroke-width:1.0;" x1="166.4019" x2="166.4019" y1="1227.4375" y2="1247.4375"/><polygon fill="#181818" points="162.4019,1237.4375,166.4019,1247.4375,170.4019,1237.4375,166.4019,1241.4375" style="stroke:#181818;stroke-width:1.0;"/><line style="stroke:#181818;stroke-width:1.0;" x1="185.9092" x2="166.4019" y1="1117.5" y2="1117.5"/><line style="stroke:#181818;stroke-width:1.0;" x1="166.4019" x2="166.4019" y1="1117.5" y2="1139.5"/><polygon fill="#181818" points="162.4019,1129.5,166.4019,1139.5,170.4019,1129.5,166.4019,1133.5" style="stroke:#181818;stroke-width:1.0;"/><line style="stroke:#181818;stroke-width:1.0;" x1="352.7266" x2="372.2339" y1="1117.5" y2="1117.5"/><line style="stroke:#181818;stroke-width:1.0;" x1="372.2339" x2="372.2339" y1="1117.5" y2="1139.5"/><polygon fill="#181818" points="368.2339,1129.5,372.2339,1139.5,376.2339,1129.5,372.2339,1133.5" style="stroke:#181818;stroke-width:1.0;"/><line style="stroke:#181818;stroke-width:1.0;" x1="166.4019" x2="166.4019" y1="1281.4063" y2="1299.4063"/><line style="stroke:#181818;stroke-width:1.0;" x1="166.4019" x2="257.3179" y1="1299.4063" y2="1299.4063"/><polygon fill="#181818" points="247.3179,1295.4063,257.3179,1299.4063,247.3179,1303.4063,251.3179,1299.4063" style="stroke:#181818;stroke-width:1.0;"/><line style="stroke:#181818;stroke-width:1.0;" x1="372.2339" x2="372.2339" y1="1173.4688" y2="1299.4063"/><line style="stroke:#181818;stroke-width:1.0;" x1="372.2339" x2="281.3179" y1="1299.4063" y2="1299.4063"/><polygon fill="#181818" points="291.3179,1295.4063,281.3179,1299.4063,291.3179,1303.4063,287.3179,1299.4063" style="stroke:#181818;stroke-width:1.0;"/><line style="stroke:#181818;stroke-width:1.0;" x1="269.3179" x2="269.3179" y1="1085.5" y2="1105.5"/><polygon fill="#181818" points="265.3179,1095.5,269.3179,1105.5,273.3179,1095.5,269.3179,1099.5" style="stroke:#181818;stroke-width:1.0;"/><line style="stroke:#181818;stroke-width:1.0;" x1="158.3701" x2="158.3701" y1="1399.375" y2="1419.375"/><polygon fill="#181818" points="154.3701,1409.375,158.3701,1419.375,162.3701,1409.375,158.3701,1413.375" style="stroke:#181818;stroke-width:1.0;"/><line style="stroke:#181818;stroke-width:1.0;" x1="158.3701" x2="158.3701" y1="1453.3438" y2="1473.3438"/><polygon fill="#181818" points="154.3701,1463.3438,158.3701,1473.3438,162.3701,1463.3438,158.3701,1467.3438" style="stroke:#181818;stroke-width:1.0;"/><line style="stroke:#181818;stroke-width:1.0;" x1="178.6421" x2="158.3701" y1="1343.4063" y2="1343.4063"/><line style="stroke:#181818;stroke-width:1.0;" x1="158.3701" x2="158.3701" y1="1343.4063" y2="1365.4063"/><polygon fill="#181818" points="154.3701,1355.4063,158.3701,1365.4063,162.3701,1355.4063,158.3701,1359.4063" style="stroke:#181818;stroke-width:1.0;"/><line style="stroke:#181818;stroke-width:1.0;" x1="359.9937" x2="380.2656" y1="1343.4063" y2="1343.4063"/><line style="stroke:#181818;stroke-width:1.0;" x1="380.2656" x2="380.2656" y1="1343.4063" y2="1365.4063"/><polygon fill="#181818" points="376.2656,1355.4063,380.2656,1365.4063,384.2656,1355.4063,380.2656,1359.4063" style="stroke:#181818;stroke-width:1.0;"/><line style="stroke:#181818;stroke-width:1.0;" x1="158.3701" x2="158.3701" y1="1507.3125" y2="1525.3125"/><line style="stroke:#181818;stroke-width:1.0;" x1="158.3701" x2="257.3179" y1="1525.3125" y2="1525.3125"/><polygon fill="#181818" points="247.3179,1521.3125,257.3179,1525.3125,247.3179,1529.3125,251.3179,1525.3125" style="stroke:#181818;stroke-width:1.0;"/><line style="stroke:#181818;stroke-width:1.0;" x1="380.2656" x2="380.2656" y1="1399.375" y2="1525.3125"/><line style="stroke:#181818;stroke-width:1.0;" x1="380.2656" x2="281.3179" y1="1525.3125" y2="1525.3125"/><polygon fill="#181818" points="291.3179,1521.3125,281.3179,1525.3125,291.3179,1529.3125,287.3179,1525.3125" style="stroke:#181818;stroke-width:1.0;"/><line style="stroke:#181818;stroke-width:1.0;" x1="269.3179" x2="269.3179" y1="1311.4063" y2="1331.4063"/><polygon fill="#181818" points="265.3179,1321.4063,269.3179,1331.4063,273.3179,1321.4063,269.3179,1325.4063" style="stroke:#181818;stroke-width:1.0;"/><line style="stroke:#181818;stroke-width:1.0;" x1="269.3179" x2="269.3179" y1="1537.3125" y2="1557.3125"/><polygon fill="#181818" points="265.3179,1547.3125,269.3179,1557.3125,273.3179,1547.3125,269.3179,1551.3125" style="stroke:#181818;stroke-width:1.0;"/><!--SRC=[bPEzReCm58LtdkAEi35qg63ea4fjf3H3IOTE2C5Di00RsTTg-_OruBRyc9ImMFBvhdtEiL2KIVAYf5jYBtfJA67FMqqHF8fSDyW9JlXfD7O6Vwz6kungX2DYWSL305GY1_yTLU21-Q9TLjTmGKeBEv1ID-07yQ2VfEPvHWX_kha6IC1T68PchP0hopuXHpbceJyBMYcQbkBHXOV32tmmAg-IhqXQyXaIUrWh1FyeR82aOgqDQUzdWXkA5-piBTf8TDDaykkMFjGmig6H-msDsDCsTU9avwrOoDtBJzprPXBCk-qRYb73nAANtwmMs1BrAcgJpfYLeBCOwu5tfUOLF6DMc5_e_xHvXwTbZo-ZzYeCwjJrL75PdXYvza2N_fqtErR3mAfdgpjTppLtrHD33kUAHFiD]--></g></svg>