<svg xmlns="http://www.w3.org/2000/svg" xmlns:xlink="http://www.w3.org/1999/xlink" contentStyleType="text/css" height="1298px" preserveAspectRatio="none" style="width:792px;height:1298px;background:#FFFFFF;" version="1.1" viewBox="0 0 792 1298" width="792px" zoomAndPan="magnify"><script xmlns=""/><defs/><g><ellipse cx="395.3213" cy="20" fill="#222222" rx="10" ry="10" style="stroke:#222222;stroke-width:1.0;"/><rect fill="#F1F1F1" height="33.9688" rx="12.5" ry="12.5" style="stroke:#181818;stroke-width:0.5;" width="386.6914" x="201.9756" y="50"/><text fill="#000000" font-family="sans-serif" font-size="12" lengthAdjust="spacing" textLength="366.6914" x="211.9756" y="71.1387">User Input (document, max_characters, llm_provider, model)</text><rect fill="#F1F1F1" height="33.9688" rx="12.5" ry="12.5" style="stroke:#181818;stroke-width:0.5;" width="121.3906" x="334.626" y="103.9688"/><text fill="#000000" font-family="sans-serif" font-size="12" lengthAdjust="spacing" textLength="101.3906" x="344.626" y="125.1074">Call get_sections</text><rect fill="#F1F1F1" height="33.9688" rx="12.5" ry="12.5" style="stroke:#181818;stroke-width:0.5;" width="166.373" x="312.1348" y="157.9375"/><text fill="#000000" font-family="sans-serif" font-size="12" lengthAdjust="spacing" textLength="146.373" x="322.1348" y="179.0762">Call get_document_lines</text><rect fill="#F1F1F1" height="33.9688" rx="12.5" ry="12.5" style="stroke:#181818;stroke-width:0.5;" width="265.7422" x="262.4502" y="211.9063"/><text fill="#000000" font-family="sans-serif" font-size="12" lengthAdjust="spacing" textLength="245.7422" x="272.4502" y="233.0449">document_lines = split document by line</text><rect fill="#F1F1F1" height="33.9688" rx="12.5" ry="12.5" style="stroke:#181818;stroke-width:0.5;" width="197.832" x="296.4053" y="321.5854"/><text fill="#000000" font-family="sans-serif" font-size="12" lengthAdjust="spacing" textLength="177.832" x="306.4053" y="342.7241">Call get_document_with_lines</text><rect fill="#F1F1F1" height="33.9688" rx="12.5" ry="12.5" style="stroke:#181818;stroke-width:0.5;" width="696.4766" x="47.083" y="375.5542"/><text fill="#000000" font-family="sans-serif" font-size="12" lengthAdjust="spacing" textLength="676.4766" x="57.083" y="396.6929">document_with_line_numbers, end_line = get_document_with_lines(document_lines, start_line, max_characters)</text><rect fill="#F1F1F1" height="33.9688" rx="12.5" ry="12.5" style="stroke:#181818;stroke-width:0.5;" width="200.8027" x="294.9199" y="429.5229"/><text fill="#000000" font-family="sans-serif" font-size="12" lengthAdjust="spacing" textLength="180.8027" x="304.9199" y="450.6616">Call get_structured_document</text><rect fill="#F1F1F1" height="33.9688" rx="12.5" ry="12.5" style="stroke:#181818;stroke-width:0.5;" width="718.6426" x="36" y="483.4917"/><text fill="#000000" font-family="sans-serif" font-size="12" lengthAdjust="spacing" textLength="698.6426" x="46" y="504.6304">structured_doc = get_structured_document(document_with_line_numbers, start_line, end_line, llm_provider, model)</text><rect fill="#F1F1F1" height="33.9688" rx="12.5" ry="12.5" style="stroke:#181818;stroke-width:0.5;" width="279.6055" x="255.5186" y="537.4604"/><text fill="#000000" font-family="sans-serif" font-size="12" lengthAdjust="spacing" textLength="259.6055" x="265.5186" y="558.5991">Add structured_doc.sections to all_sections</text><polygon fill="#F1F1F1" points="291.6914,591.4292,498.9512,591.4292,510.9512,603.4292,498.9512,615.4292,291.6914,615.4292,279.6914,603.4292,291.6914,591.4292" style="stroke:#181818;stroke-width:0.5;"/><text fill="#000000" font-family="sans-serif" font-size="11" lengthAdjust="spacing" textLength="207.2598" x="291.6914" y="607.2373">end_line &gt;= len(document_lines) - 1?</text><text fill="#000000" font-family="sans-serif" font-size="11" lengthAdjust="spacing" textLength="19.0083" x="260.6831" y="600.835">yes</text><text fill="#000000" font-family="sans-serif" font-size="11" lengthAdjust="spacing" textLength="13.7017" x="510.9512" y="600.835">no</text><rect fill="#F1F1F1" height="33.9688" rx="12.5" ry="12.5" style="stroke:#181818;stroke-width:0.5;" width="84.3008" x="227.541" y="625.4292"/><text fill="#000000" font-family="sans-serif" font-size="12" lengthAdjust="spacing" textLength="64.3008" x="237.541" y="646.5679">Break loop</text><rect fill="#F1F1F1" height="33.9688" rx="12.5" ry="12.5" style="stroke:#181818;stroke-width:0.5;" width="247.0391" x="397.4316" y="673.8315"/><text fill="#000000" font-family="sans-serif" font-size="12" lengthAdjust="spacing" textLength="227.0391" x="407.4316" y="694.9702">Remove last section from all_sections</text><polygon fill="#F1F1F1" points="456.9465,625.4292,584.9558,625.4292,596.9558,637.4292,584.9558,649.4292,456.9465,649.4292,444.9465,637.4292,456.9465,625.4292" style="stroke:#181818;stroke-width:0.5;"/><text fill="#000000" font-family="sans-serif" font-size="11" lengthAdjust="spacing" textLength="19.0083" x="524.9512" y="659.6396">yes</text><text fill="#000000" font-family="sans-serif" font-size="11" lengthAdjust="spacing" textLength="128.0093" x="456.9465" y="641.2373">len(new_sections) &gt; 1?</text><polygon fill="#F1F1F1" points="520.9512,727.8003,532.9512,739.8003,520.9512,751.8003,508.9512,739.8003,520.9512,727.8003" style="stroke:#181818;stroke-width:0.5;"/><rect fill="#F1F1F1" height="33.9688" rx="12.5" ry="12.5" style="stroke:#181818;stroke-width:0.5;" width="300.4004" x="370.751" y="771.8003"/><text fill="#000000" font-family="sans-serif" font-size="12" lengthAdjust="spacing" textLength="280.4004" x="380.751" y="792.939">Set start_line to all_sections[-1].end_index + 1</text><polygon fill="#F1F1F1" points="395.3213,811.769,407.3213,823.769,395.3213,835.769,383.3213,823.769,395.3213,811.769" style="stroke:#181818;stroke-width:0.5;"/><polygon fill="#F1F1F1" points="350.1853,265.875,440.4573,265.875,452.4573,277.875,440.4573,289.875,350.1853,289.875,338.1853,277.875,350.1853,265.875" style="stroke:#181818;stroke-width:0.5;"/><text fill="#000000" font-family="sans-serif" font-size="11" lengthAdjust="spacing" textLength="19.0083" x="399.3213" y="300.0854">yes</text><text fill="#000000" font-family="sans-serif" font-size="11" lengthAdjust="spacing" textLength="90.272" x="350.1853" y="281.6831">more iterations?</text><rect fill="#F1F1F1" height="33.9688" rx="12.5" ry="12.5" style="stroke:#181818;stroke-width:0.5;" width="152.6152" x="319.0137" y="877.769"/><text fill="#000000" font-family="sans-serif" font-size="12" lengthAdjust="spacing" textLength="132.6152" x="329.0137" y="898.9077">Call partition_sections</text><rect fill="#F1F1F1" height="33.9688" rx="12.5" ry="12.5" style="stroke:#181818;stroke-width:0.5;" width="457.0566" x="166.793" y="931.7378"/><text fill="#000000" font-family="sans-serif" font-size="12" lengthAdjust="spacing" textLength="437.0566" x="176.793" y="952.8765">all_sections = partition_sections(all_sections, 0, len(document_lines) - 1)</text><rect fill="#F1F1F1" height="33.9688" rx="12.5" ry="12.5" style="stroke:#181818;stroke-width:0.5;" width="147.4707" x="321.5859" y="985.7065"/><text fill="#000000" font-family="sans-serif" font-size="12" lengthAdjust="spacing" textLength="127.4707" x="331.5859" y="1006.8452">Call is_valid_partition</text><polygon fill="#F1F1F1" points="234.3979,1039.6753,556.2446,1039.6753,568.2446,1051.6753,556.2446,1063.6753,234.3979,1063.6753,222.3979,1051.6753,234.3979,1039.6753" style="stroke:#181818;stroke-width:0.5;"/><text fill="#000000" font-family="sans-serif" font-size="11" lengthAdjust="spacing" textLength="321.8467" x="234.3979" y="1055.4834">is_valid_partition(all_sections, 0, len(document_lines) - 1)?</text><text fill="#000000" font-family="sans-serif" font-size="11" lengthAdjust="spacing" textLength="19.0083" x="203.3896" y="1049.0811">yes</text><text fill="#000000" font-family="sans-serif" font-size="11" lengthAdjust="spacing" textLength="13.7017" x="568.2446" y="1049.0811">no</text><rect fill="#F1F1F1" height="33.9688" rx="12.5" ry="12.5" style="stroke:#181818;stroke-width:0.5;" width="151.2852" x="136.7554" y="1073.6753"/><text fill="#000000" font-family="sans-serif" font-size="12" lengthAdjust="spacing" textLength="131.2852" x="146.7554" y="1094.814">Call get_sections_text</text><rect fill="#F1F1F1" height="33.9688" rx="12.5" ry="12.5" style="stroke:#181818;stroke-width:0.5;" width="401.416" x="11.6899" y="1127.644"/><text fill="#000000" font-family="sans-serif" font-size="12" lengthAdjust="spacing" textLength="381.416" x="21.6899" y="1148.7827">section_dicts = get_sections_text(all_sections, document_lines)</text><rect fill="#F1F1F1" height="33.9688" rx="12.5" ry="12.5" style="stroke:#181818;stroke-width:0.5;" width="189.1367" x="117.8296" y="1181.6128"/><text fill="#000000" font-family="sans-serif" font-size="12" lengthAdjust="spacing" textLength="169.1367" x="127.8296" y="1202.7515">Return section_dicts to User</text><rect fill="#F1F1F1" height="33.9688" rx="12.5" ry="12.5" style="stroke:#181818;stroke-width:0.5;" width="142.2148" x="507.1372" y="1073.6753"/><text fill="#000000" font-family="sans-serif" font-size="12" lengthAdjust="spacing" textLength="122.2148" x="517.1372" y="1094.814">Raise AssertionError</text><polygon fill="#F1F1F1" points="395.3213,1221.5815,407.3213,1233.5815,395.3213,1245.5815,383.3213,1233.5815,395.3213,1221.5815" style="stroke:#181818;stroke-width:0.5;"/><ellipse cx="395.3213" cy="1276.5815" fill="none" rx="11" ry="11" style="stroke:#222222;stroke-width:1.0;"/><ellipse cx="395.3213" cy="1276.5815" fill="#222222" rx="6" ry="6" style="stroke:#222222;stroke-width:1.0;"/><line style="stroke:#181818;stroke-width:1.0;" x1="395.3213" x2="395.3213" y1="30" y2="50"/><polygon fill="#181818" points="391.3213,40,395.3213,50,399.3213,40,395.3213,44" style="stroke:#181818;stroke-width:1.0;"/><line style="stroke:#181818;stroke-width:1.0;" x1="395.3213" x2="395.3213" y1="83.9688" y2="103.9688"/><polygon fill="#181818" points="391.3213,93.9688,395.3213,103.9688,399.3213,93.9688,395.3213,97.9688" style="stroke:#181818;stroke-width:1.0;"/><line style="stroke:#181818;stroke-width:1.0;" x1="395.3213" x2="395.3213" y1="137.9375" y2="157.9375"/><polygon fill="#181818" points="391.3213,147.9375,395.3213,157.9375,399.3213,147.9375,395.3213,151.9375" style="stroke:#181818;stroke-width:1.0;"/><line style="stroke:#181818;stroke-width:1.0;" x1="395.3213" x2="395.3213" y1="191.9063" y2="211.9063"/><polygon fill="#181818" points="391.3213,201.9063,395.3213,211.9063,399.3213,201.9063,395.3213,205.9063" style="stroke:#181818;stroke-width:1.0;"/><line style="stroke:#181818;stroke-width:1.0;" x1="395.3213" x2="395.3213" y1="355.5542" y2="375.5542"/><polygon fill="#181818" points="391.3213,365.5542,395.3213,375.5542,399.3213,365.5542,395.3213,369.5542" style="stroke:#181818;stroke-width:1.0;"/><line style="stroke:#181818;stroke-width:1.0;" x1="395.3213" x2="395.3213" y1="409.5229" y2="429.5229"/><polygon fill="#181818" points="391.3213,419.5229,395.3213,429.5229,399.3213,419.5229,395.3213,423.5229" style="stroke:#181818;stroke-width:1.0;"/><line style="stroke:#181818;stroke-width:1.0;" x1="395.3213" x2="395.3213" y1="463.4917" y2="483.4917"/><polygon fill="#181818" points="391.3213,473.4917,395.3213,483.4917,399.3213,473.4917,395.3213,477.4917" style="stroke:#181818;stroke-width:1.0;"/><line style="stroke:#181818;stroke-width:1.0;" x1="395.3213" x2="395.3213" y1="517.4604" y2="537.4604"/><polygon fill="#181818" points="391.3213,527.4604,395.3213,537.4604,399.3213,527.4604,395.3213,531.4604" style="stroke:#181818;stroke-width:1.0;"/><line style="stroke:#181818;stroke-width:1.0;" x1="520.9512" x2="520.9512" y1="649.4292" y2="673.8315"/><polygon fill="#181818" points="516.9512,663.8315,520.9512,673.8315,524.9512,663.8315,520.9512,667.8315" style="stroke:#181818;stroke-width:1.0;"/><line style="stroke:#181818;stroke-width:1.0;" x1="596.9558" x2="654.4707" y1="637.4292" y2="637.4292"/><polygon fill="#181818" points="650.4707,680.8159,654.4707,690.8159,658.4707,680.8159,654.4707,684.8159" style="stroke:#181818;stroke-width:1.0;"/><line style="stroke:#181818;stroke-width:1.0;" x1="654.4707" x2="654.4707" y1="637.4292" y2="739.8003"/><line style="stroke:#181818;stroke-width:1.0;" x1="654.4707" x2="532.9512" y1="739.8003" y2="739.8003"/><polygon fill="#181818" points="542.9512,735.8003,532.9512,739.8003,542.9512,743.8003,538.9512,739.8003" style="stroke:#181818;stroke-width:1.0;"/><line style="stroke:#181818;stroke-width:1.0;" x1="520.9512" x2="520.9512" y1="707.8003" y2="727.8003"/><polygon fill="#181818" points="516.9512,717.8003,520.9512,727.8003,524.9512,717.8003,520.9512,721.8003" style="stroke:#181818;stroke-width:1.0;"/><line style="stroke:#181818;stroke-width:1.0;" x1="520.9512" x2="520.9512" y1="751.8003" y2="771.8003"/><polygon fill="#181818" points="516.9512,761.8003,520.9512,771.8003,524.9512,761.8003,520.9512,765.8003" style="stroke:#181818;stroke-width:1.0;"/><line style="stroke:#181818;stroke-width:1.0;" x1="279.6914" x2="269.6914" y1="603.4292" y2="603.4292"/><line style="stroke:#181818;stroke-width:1.0;" x1="269.6914" x2="269.6914" y1="603.4292" y2="625.4292"/><polygon fill="#181818" points="265.6914,615.4292,269.6914,625.4292,273.6914,615.4292,269.6914,619.4292" style="stroke:#181818;stroke-width:1.0;"/><line style="stroke:#181818;stroke-width:1.0;" x1="510.9512" x2="520.9512" y1="603.4292" y2="603.4292"/><line style="stroke:#181818;stroke-width:1.0;" x1="520.9512" x2="520.9512" y1="603.4292" y2="625.4292"/><polygon fill="#181818" points="516.9512,615.4292,520.9512,625.4292,524.9512,615.4292,520.9512,619.4292" style="stroke:#181818;stroke-width:1.0;"/><line style="stroke:#181818;stroke-width:1.0;" x1="269.6914" x2="269.6914" y1="659.3979" y2="823.769"/><line style="stroke:#181818;stroke-width:1.0;" x1="269.6914" x2="383.3213" y1="823.769" y2="823.769"/><polygon fill="#181818" points="373.3213,819.769,383.3213,823.769,373.3213,827.769,377.3213,823.769" style="stroke:#181818;stroke-width:1.0;"/><line style="stroke:#181818;stroke-width:1.0;" x1="520.9512" x2="520.9512" y1="805.769" y2="823.769"/><line style="stroke:#181818;stroke-width:1.0;" x1="520.9512" x2="407.3213" y1="823.769" y2="823.769"/><polygon fill="#181818" points="417.3213,819.769,407.3213,823.769,417.3213,827.769,413.3213,823.769" style="stroke:#181818;stroke-width:1.0;"/><line style="stroke:#181818;stroke-width:1.0;" x1="395.3213" x2="395.3213" y1="571.4292" y2="591.4292"/><polygon fill="#181818" points="391.3213,581.4292,395.3213,591.4292,399.3213,581.4292,395.3213,585.4292" style="stroke:#181818;stroke-width:1.0;"/><line style="stroke:#181818;stroke-width:1.0;" x1="395.3213" x2="395.3213" y1="289.875" y2="321.5854"/><polygon fill="#181818" points="391.3213,311.5854,395.3213,321.5854,399.3213,311.5854,395.3213,315.5854" style="stroke:#181818;stroke-width:1.0;"/><line style="stroke:#181818;stroke-width:1.0;" x1="395.3213" x2="395.3213" y1="835.769" y2="845.769"/><line style="stroke:#181818;stroke-width:1.0;" x1="395.3213" x2="766.6426" y1="845.769" y2="845.769"/><polygon fill="#181818" points="762.6426,557.4761,766.6426,547.4761,770.6426,557.4761,766.6426,553.4761" style="stroke:#181818;stroke-width:1.0;"/><line style="stroke:#181818;stroke-width:1.0;" x1="766.6426" x2="766.6426" y1="277.875" y2="845.769"/><line style="stroke:#181818;stroke-width:1.0;" x1="766.6426" x2="452.4573" y1="277.875" y2="277.875"/><polygon fill="#181818" points="462.4573,273.875,452.4573,277.875,462.4573,281.875,458.4573,277.875" style="stroke:#181818;stroke-width:1.0;"/><line style="stroke:#181818;stroke-width:1.0;" x1="338.1853" x2="24" y1="277.875" y2="277.875"/><polygon fill="#181818" points="20,543.4761,24,553.4761,28,543.4761,24,547.4761" style="stroke:#181818;stroke-width:1.0;"/><line style="stroke:#181818;stroke-width:1.0;" x1="24" x2="24" y1="277.875" y2="857.769"/><line style="stroke:#181818;stroke-width:1.0;" x1="24" x2="395.3213" y1="857.769" y2="857.769"/><line style="stroke:#181818;stroke-width:1.0;" x1="395.3213" x2="395.3213" y1="857.769" y2="877.769"/><polygon fill="#181818" points="391.3213,867.769,395.3213,877.769,399.3213,867.769,395.3213,871.769" style="stroke:#181818;stroke-width:1.0;"/><line style="stroke:#181818;stroke-width:1.0;" x1="395.3213" x2="395.3213" y1="245.875" y2="265.875"/><polygon fill="#181818" points="391.3213,255.875,395.3213,265.875,399.3213,255.875,395.3213,259.875" style="stroke:#181818;stroke-width:1.0;"/><line style="stroke:#181818;stroke-width:1.0;" x1="395.3213" x2="395.3213" y1="911.7378" y2="931.7378"/><polygon fill="#181818" points="391.3213,921.7378,395.3213,931.7378,399.3213,921.7378,395.3213,925.7378" style="stroke:#181818;stroke-width:1.0;"/><line style="stroke:#181818;stroke-width:1.0;" x1="395.3213" x2="395.3213" y1="965.7065" y2="985.7065"/><polygon fill="#181818" points="391.3213,975.7065,395.3213,985.7065,399.3213,975.7065,395.3213,979.7065" style="stroke:#181818;stroke-width:1.0;"/><line style="stroke:#181818;stroke-width:1.0;" x1="212.3979" x2="212.3979" y1="1107.644" y2="1127.644"/><polygon fill="#181818" points="208.3979,1117.644,212.3979,1127.644,216.3979,1117.644,212.3979,1121.644" style="stroke:#181818;stroke-width:1.0;"/><line style="stroke:#181818;stroke-width:1.0;" x1="212.3979" x2="212.3979" y1="1161.6128" y2="1181.6128"/><polygon fill="#181818" points="208.3979,1171.6128,212.3979,1181.6128,216.3979,1171.6128,212.3979,1175.6128" style="stroke:#181818;stroke-width:1.0;"/><line style="stroke:#181818;stroke-width:1.0;" x1="222.3979" x2="212.3979" y1="1051.6753" y2="1051.6753"/><line style="stroke:#181818;stroke-width:1.0;" x1="212.3979" x2="212.3979" y1="1051.6753" y2="1073.6753"/><polygon fill="#181818" points="208.3979,1063.6753,212.3979,1073.6753,216.3979,1063.6753,212.3979,1067.6753" style="stroke:#181818;stroke-width:1.0;"/><line style="stroke:#181818;stroke-width:1.0;" x1="568.2446" x2="578.2446" y1="1051.6753" y2="1051.6753"/><line style="stroke:#181818;stroke-width:1.0;" x1="578.2446" x2="578.2446" y1="1051.6753" y2="1073.6753"/><polygon fill="#181818" points="574.2446,1063.6753,578.2446,1073.6753,582.2446,1063.6753,578.2446,1067.6753" style="stroke:#181818;stroke-width:1.0;"/><line style="stroke:#181818;stroke-width:1.0;" x1="212.3979" x2="212.3979" y1="1215.5815" y2="1233.5815"/><line style="stroke:#181818;stroke-width:1.0;" x1="212.3979" x2="383.3213" y1="1233.5815" y2="1233.5815"/><polygon fill="#181818" points="373.3213,1229.5815,383.3213,1233.5815,373.3213,1237.5815,377.3213,1233.5815" style="stroke:#181818;stroke-width:1.0;"/><line style="stroke:#181818;stroke-width:1.0;" x1="578.2446" x2="578.2446" y1="1107.644" y2="1233.5815"/><line style="stroke:#181818;stroke-width:1.0;" x1="578.2446" x2="407.3213" y1="1233.5815" y2="1233.5815"/><polygon fill="#181818" points="417.3213,1229.5815,407.3213,1233.5815,417.3213,1237.5815,413.3213,1233.5815" style="stroke:#181818;stroke-width:1.0;"/><line style="stroke:#181818;stroke-width:1.0;" x1="395.3213" x2="395.3213" y1="1019.6753" y2="1039.6753"/><polygon fill="#181818" points="391.3213,1029.6753,395.3213,1039.6753,399.3213,1029.6753,395.3213,1033.6753" style="stroke:#181818;stroke-width:1.0;"/><line style="stroke:#181818;stroke-width:1.0;" x1="395.3213" x2="395.3213" y1="1245.5815" y2="1265.5815"/><polygon fill="#181818" points="391.3213,1255.5815,395.3213,1265.5815,399.3213,1255.5815,395.3213,1259.5815" style="stroke:#181818;stroke-width:1.0;"/><!--SRC=[ZLHDRzim3BtxL_1eOsxGN1EqGrlqi6k6dOP1K2sc4IfBXaGdwRyVfTgEFvgYFXWmIRtt-4WvaFIKPPi_0JtyiarBa2jNjJLQAg6MPr4Tf9SLeGyb65EBnhkZLkWvwnIQOikddwGny8ea0bQadGsJO8ydZBR8gSqq07SG6gC9-Z2yl4FCCCZfe0r2NZkFe5c3JEW_2z01ydSCHGRyV49rqdJe-LB9CYDiMx-ajj2g564bLq3ogUGIGlGjVSnTYePCHGNoRKMjHpL0TwAccOx-a_ByA_LZANqdLqULQ1-KWYdBgXySa0FMFHvaFABta0yktT-1GJkpf80RMFDWw81sD9h4z-XHle5nhlde6qtWeLftAOdu4TFYQQ0kuFuQOaBTOUsE24O6WkuCxBshP_hxUfQlznTDlv56pitR_dkp_hUA3Mkhy0m_ODqfJo3yJelPBtd3C3gU6z5knd0ysMLDFgueuRQyvkhbYkaWZj9e9GQqRHQjMyQ_3xvqU7cT1U5vsDcFc52wej2lxBXkHZtZx51soBjdOGh6GuZ_eMqsNP3DJch-VWYSYzNFthjOb6QH1NBDVm00]--></g></svg>